<svg id="Layer_1" enable-background="new 0 0 512 512" height="512" viewBox="0 0 512 512" width="512" xmlns="http://www.w3.org/2000/svg"><g><path d="m104 336.024c-13.234 0-24 10.766-24 24s10.766 24 24 24 24-10.766 24-24-10.766-24-24-24zm0 32c-4.411 0-8-3.589-8-8s3.589-8 8-8 8 3.589 8 8-3.589 8-8 8z"/><path d="m408 336.024c-13.234 0-24 10.766-24 24s10.766 24 24 24 24-10.766 24-24-10.766-24-24-24zm0 32c-4.411 0-8-3.589-8-8s3.589-8 8-8 8 3.589 8 8-3.589 8-8 8z"/><path d="m504 336.024v-54.702c0-13.796-8.793-25.996-21.881-30.358l-28.069-9.356-24.587-61.469c-4.888-12.219-16.55-20.115-29.711-20.115h-71.752v-40c0-13.234-10.766-24-24-24h-272c-13.234 0-24 10.766-24 24v216.059c-4.493.5-8 4.317-8 8.941v15c0 13.234 10.766 24 24 24h29.414c20.267 42.544 80.848 42.663 101.171 0h202.829c20.267 42.544 80.848 42.663 101.171 0h29.415c13.234 0 24-10.766 24-24v-16c0-4.419-3.582-8-8-8zm-104.249-160c6.581 0 12.412 3.948 14.856 10.058l25.965 64.914c.874 2.185 2.666 3.874 4.898 4.618l31.589 10.53c6.544 2.181 10.94 8.281 10.94 15.179v22.702h-8c-4.418 0-8 3.582-8 8s3.582 8 8 8h8v16h-29.414c-20.267-42.544-80.848-42.663-101.171 0h-29.414v-160h71.751zm-367.751-64h272c4.411 0 8 3.589 8 8v216h-157.414c-20.267-42.544-80.848-42.663-101.171 0h-29.415v-216c0-4.411 3.589-8 8-8zm-8 256c-4.411 0-8-3.589-8-8v-8h32.581c-.773 5.379-.774 10.611 0 16zm80 32c-16.75 0-31.119-10.353-37.068-24.993-.148-1.193-.559-2.303-1.173-3.274-2.345-7.627-2.348-15.83 0-23.467.614-.971 1.025-2.08 1.173-3.274 5.949-14.64 20.318-24.993 37.068-24.993s31.119 10.353 37.068 24.993c.148 1.193.559 2.303 1.173 3.274 2.345 7.626 2.348 15.83 0 23.467-.614.971-1.025 2.08-1.173 3.274-5.949 14.639-20.318 24.993-37.068 24.993zm55.419-32c.773-5.379.774-10.611 0-16h193.161c-.773 5.379-.774 10.611 0 16zm248.581 32c-16.75 0-31.119-10.353-37.068-24.993-.148-1.193-.559-2.303-1.173-3.274-2.345-7.627-2.348-15.83 0-23.467.614-.971 1.025-2.08 1.173-3.274 5.949-14.64 20.318-24.993 37.068-24.993s31.119 10.353 37.068 24.993c.148 1.193.559 2.303 1.173 3.274 2.345 7.626 2.348 15.83 0 23.467-.614.971-1.025 2.08-1.173 3.274-5.949 14.639-20.318 24.993-37.068 24.993zm88-40c0 4.411-3.589 8-8 8h-24.581c.773-5.379.774-10.611 0-16h32.581z"/><path d="m352 256.024h56c5.453 0 9.316-5.352 7.589-10.53l-16-48c-1.089-3.267-4.146-5.47-7.589-5.47h-40c-4.418 0-8 3.582-8 8v48c0 4.418 3.582 8 8 8zm8-48h26.234l10.667 32h-36.901z"/><path d="m368 272.024h-16c-4.418 0-8 3.582-8 8s3.582 8 8 8h16c4.418 0 8-3.582 8-8s-3.582-8-8-8z"/><path d="m72 264.024h72v16c0 4.418 3.582 8 8 8h112c4.418 0 8-3.582 8-8v-112c0-4.418-3.582-8-8-8-23.364 0-88.645 0-112 0-4.418 0-8 3.582-8 8v16h-24c-4.418 0-8 3.582-8 8s3.582 8 8 8h24v16h-40c-4.418 0-8 3.582-8 8s3.582 8 8 8h40v16h-72c-4.418 0-8 3.582-8 8s3.582 8 8 8zm144-88v16h-16v-16zm-56 0h24v24c0 4.418 3.582 8 8 8h32c4.418 0 8-3.582 8-8v-24h24v96h-96z"/></g></svg>