<svg enable-background="new 0 0 256 256" height="512" viewBox="0 0 256 256" width="512" xmlns="http://www.w3.org/2000/svg"><g id="Layer_75"><g><g><g><path d="m112.216 51.032h-75.94c-4.614 0-8.354-3.74-8.354-8.354v-18.679c0-4.614 3.74-8.354 8.354-8.354h75.94c4.614 0 8.354 3.74 8.354 8.354v18.679c0 4.614-3.74 8.354-8.354 8.354z" fill="#70d6f9"/></g></g><g><g><path d="m163.832 102.947h-71.051c-3.654 0-6.617-2.962-6.617-6.617v-21.754c0-3.654 2.962-6.617 6.617-6.617h71.051c3.654 0 6.617 2.962 6.617 6.617v21.755c-.001 3.654-2.963 6.616-6.617 6.616z" fill="#fca265"/></g></g><g><g><path d="m163.832 151.845h-71.051c-3.654 0-6.617-2.962-6.617-6.617v-21.755c0-3.654 2.962-6.617 6.617-6.617h71.051c3.654 0 6.617 2.962 6.617 6.617v21.755c-.001 3.654-2.963 6.617-6.617 6.617z" fill="#f5c84c"/></g></g><g><g><path d="m221.461 204.603h-71.051c-3.654 0-6.617-2.962-6.617-6.617v-21.755c0-3.654 2.962-6.617 6.617-6.617h71.051c3.654 0 6.617 2.962 6.617 6.617v21.755c0 3.654-2.962 6.617-6.617 6.617z" fill="#fcdd86"/></g></g><g><g><path d="m221.461 253.5h-71.051c-3.654 0-6.617-2.962-6.617-6.617v-21.755c0-3.654 2.962-6.617 6.617-6.617h71.051c3.654 0 6.617 2.962 6.617 6.617v21.755c0 3.655-2.962 6.617-6.617 6.617z" fill="#fcdd86"/></g></g><g><g><path d="m112.216 53.532h-75.94c-5.984 0-10.854-4.869-10.854-10.854v-18.679c0-5.984 4.869-10.854 10.854-10.854h75.94c5.985 0 10.854 4.869 10.854 10.854v18.679c0 5.985-4.869 10.854-10.854 10.854zm-75.941-35.386c-3.228 0-5.854 2.626-5.854 5.854v18.679c0 3.229 2.626 5.854 5.854 5.854h75.94c3.229 0 5.854-2.626 5.854-5.854v-18.68c0-3.228-2.626-5.854-5.854-5.854h-75.94z"/></g></g><g><g><path d="m163.831 105.447h-71.05c-5.027 0-9.117-4.09-9.117-9.116v-21.756c0-5.026 4.09-9.116 9.117-9.116h71.05c5.027 0 9.117 4.09 9.117 9.116v21.756c0 5.026-4.09 9.116-9.117 9.116zm-71.05-34.988c-2.271 0-4.117 1.847-4.117 4.116v21.756c0 2.27 1.847 4.116 4.117 4.116h71.05c2.271 0 4.117-1.847 4.117-4.116v-21.756c0-2.27-1.847-4.116-4.117-4.116z"/></g></g><g><g><path d="m163.831 154.345h-71.05c-5.027 0-9.117-4.09-9.117-9.116v-21.756c0-5.026 4.09-9.116 9.117-9.116h71.05c5.027 0 9.117 4.09 9.117 9.116v21.756c0 5.026-4.09 9.116-9.117 9.116zm-71.05-34.989c-2.271 0-4.117 1.847-4.117 4.116v21.756c0 2.27 1.847 4.116 4.117 4.116h71.05c2.271 0 4.117-1.847 4.117-4.116v-21.756c0-2.27-1.847-4.116-4.117-4.116z"/></g></g><g><g><path d="m85.521 137.172h-37.317c-1.381 0-2.5-1.119-2.5-2.5v-83.64c0-1.381 1.119-2.5 2.5-2.5s2.5 1.119 2.5 2.5v81.14h34.816c1.381 0 2.5 1.119 2.5 2.5s-1.119 2.5-2.499 2.5z"/></g></g><g><g><path d="m85.521 88.274h-36.317c-1.381 0-2.5-1.119-2.5-2.5s1.119-2.5 2.5-2.5h36.316c1.381 0 2.5 1.119 2.5 2.5s-1.119 2.5-2.499 2.5z"/></g></g><g><g><path d="m221.461 207.103h-71.051c-5.026 0-9.116-4.09-9.116-9.116v-21.757c0-5.026 4.09-9.116 9.116-9.116h71.051c5.027 0 9.117 4.09 9.117 9.116v21.756c0 5.027-4.09 9.117-9.117 9.117zm-71.051-34.989c-2.27 0-4.116 1.847-4.116 4.116v21.756c0 2.27 1.847 4.116 4.116 4.116h71.051c2.271 0 4.117-1.847 4.117-4.116v-21.756c0-2.27-1.847-4.116-4.117-4.116z"/></g></g><g><g><path d="m221.461 256h-71.051c-5.026 0-9.116-4.09-9.116-9.116v-21.756c0-5.026 4.09-9.116 9.116-9.116h71.051c5.027 0 9.117 4.09 9.117 9.116v21.756c0 5.026-4.09 9.116-9.117 9.116zm-71.051-34.988c-2.27 0-4.116 1.847-4.116 4.116v21.756c0 2.27 1.847 4.116 4.116 4.116h71.051c2.271 0 4.117-1.847 4.117-4.116v-21.756c0-2.27-1.847-4.116-4.117-4.116z"/></g></g><g><g><path d="m143.15 189.93h-36.316c-1.381 0-2.5-1.119-2.5-2.5s1.119-2.5 2.5-2.5h36.316c1.381 0 2.5 1.119 2.5 2.5s-1.119 2.5-2.5 2.5z"/></g></g><g><g><path d="m143.15 238.827h-37.316c-1.381 0-2.5-1.119-2.5-2.5v-83.64c0-1.381 1.119-2.5 2.5-2.5s2.5 1.119 2.5 2.5v81.14h34.816c1.381 0 2.5 1.119 2.5 2.5s-1.119 2.5-2.5 2.5z"/></g></g><g><g><path d="m153.705 23.882c-4.498-.838-8.043-4.31-8.898-8.716-.043-.221-.352-.221-.395 0-.855 4.406-4.4 7.879-8.898 8.716-.226.042-.226.345 0 .387 4.498.838 8.043 4.31 8.898 8.717.043.221.352.221.395 0 .855-4.406 4.4-7.879 8.898-8.717.226-.042.226-.344 0-.387z" fill="#f5c84c"/></g></g><g><g><path d="m78.747 169.059c-3.368-.627-6.022-3.227-6.662-6.527-.032-.166-.263-.166-.296 0-.64 3.299-3.295 5.9-6.662 6.527-.169.032-.169.258 0 .29 3.368.627 6.022 3.228 6.662 6.527.032.166.263.166.296 0 .64-3.299 3.295-5.9 6.662-6.527.169-.032.169-.258 0-.29z" fill="#fc657e"/></g></g><g><g><path d="m187.442 141.198h2.33v-2.33c0-1.744 1.413-3.157 3.157-3.157s3.157 1.413 3.157 3.157v2.33h2.329c1.744 0 3.157 1.413 3.157 3.157s-1.413 3.157-3.157 3.157h-2.329v2.33c0 1.744-1.413 3.157-3.157 3.157s-3.157-1.413-3.157-3.157v-2.33h-2.33c-1.744 0-3.157-1.413-3.157-3.157s1.413-3.157 3.157-3.157z" fill="#70d6f9"/></g></g><g><g><circle cx="131.721" cy="3.377" fill="#87d147" r="3.377"/></g></g><g><g><circle cx="80.721" cy="192.377" fill="#f5c84c" r="3.377"/></g></g></g></g></svg>