<svg height="512" viewBox="0 0 512 512" width="512" xmlns="http://www.w3.org/2000/svg"><g><g><rect fill="#78b9eb" height="480" rx="20" width="256" x="48" y="16"/><path d="m176 80a64 64 0 0 0 -64 64c0 35.35 64 96 64 96s64-60.65 64-96a64 64 0 0 0 -64-64zm0 64a16 16 0 1 1 16-16 16 16 0 0 1 -16 16z" fill="#ff5023"/><path d="m215 48h-79l-8-32h96z" fill="#3e3d42"/><g><path d="m433 456h31v-96l-64-72h-64v168h17" fill="#d8d7da"/><path d="m145 456h-25v-192h25 143 48v20 172h-111" fill="#3e3d42"/><path d="m417.45 312h-57.45v48h104" fill="#78b9eb"/><path d="m432 384h16a16 16 0 0 1 16 16 16 16 0 0 1 -16 16h-16a0 0 0 0 1 0 0v-32a0 0 0 0 1 0 0z" fill="#ffda44" transform="matrix(-1 0 0 -1 896 800)"/><circle cx="393" cy="456" fill="#2d2d30" r="40"/><circle cx="185" cy="456" fill="#2d2d30" r="40"/><g fill="#ffda44"><circle cx="393" cy="456" r="16"/><circle cx="185" cy="456" r="16"/></g></g><path d="m120 264h216v120h-216z" fill="#ff9811"/></g><g><path d="m176 152a24 24 0 1 0 -24-24 24.027 24.027 0 0 0 24 24zm0-32a8 8 0 1 1 -8 8 8.009 8.009 0 0 1 8-8z"/><path d="m170.5 245.807a8 8 0 0 0 11.006 0 422.047 422.047 0 0 0 32.694-35.491c22.426-27.452 33.8-49.764 33.8-66.316a72 72 0 0 0 -144 0c0 16.552 11.374 38.864 33.805 66.316a422.047 422.047 0 0 0 32.695 35.491zm5.5-157.807a56.063 56.063 0 0 1 56 56c0 12.383-10.687 32.294-30.091 56.066-9.909 12.146-19.934 22.657-25.909 28.694-5.975-6.037-16-16.548-25.909-28.694-19.404-23.772-30.091-43.683-30.091-56.066a56.063 56.063 0 0 1 56-56z"/><path d="m393 432a24 24 0 1 0 24 24 24.027 24.027 0 0 0 -24-24zm0 32a8 8 0 1 1 8-8 8.009 8.009 0 0 1 -8 8z"/><path d="m185 432a24 24 0 1 0 24 24 24.027 24.027 0 0 0 -24-24zm0 32a8 8 0 1 1 8-8 8.009 8.009 0 0 1 -8 8z"/><path d="m469.98 354.69-64-72a7.994 7.994 0 0 0 -5.98-2.69h-56v-16a8 8 0 0 0 -8-8h-24v-220a28.031 28.031 0 0 0 -28-28h-216a28.031 28.031 0 0 0 -28 28v440a28.031 28.031 0 0 0 28 28h216a28.031 28.031 0 0 0 28-28v-12h33.68a47.99 47.99 0 0 0 94.64 0h23.68a8 8 0 0 0 8-8v-96a7.986 7.986 0 0 0 -2.02-5.31zm-256.54-330.69-4.5 16h-66.69l-4-16zm-145.44 464a12.01 12.01 0 0 1 -12-12v-440a12.01 12.01 0 0 1 12-12h53.75l6.49 25.94a8 8 0 0 0 7.76 6.06h79a8 8 0 0 0 7.7-5.83l7.36-26.17h53.94a12.01 12.01 0 0 1 12 12v220h-176a8 8 0 0 0 -8 8v192a8 8 0 0 0 8 8h17.68a47.823 47.823 0 0 0 11.58 24zm117 0a32 32 0 1 1 32-32 32.036 32.036 0 0 1 -32 32zm111-12a12.01 12.01 0 0 1 -12 12h-63.26a47.823 47.823 0 0 0 11.58-24h63.68zm32-28h-95.68a47.99 47.99 0 0 0 -94.64 0h-9.68v-56h200zm0-72h-200v-104h200zm89.45-56v-.33l28.73 32.33h-78.18v-32zm-24.45 168a32 32 0 1 1 32-32 32.036 32.036 0 0 1 -32 32zm63-80h-8a8 8 0 0 1 0-16h8zm0-32h-8a24 24 0 0 0 0 48h8v24h-15.68a47.99 47.99 0 0 0 -94.64 0h-1.68v-152h52.41l7.11 8h-43.52a8 8 0 0 0 -8 8v48a8 8 0 0 0 8 8h96z"/></g></g></svg>